<svg width="19" height="19" viewBox="0 0 19 19" fill="none" xmlns="http://www.w3.org/2000/svg">
<path fill-rule="evenodd" clip-rule="evenodd" d="M9.5 0.75C14.3247 0.75 18.25 4.67525 18.25 9.5C18.25 14.3247 14.3247 18.25 9.5 18.25L9.34017 18.2486L9.15087 18.2424C4.48753 18.0595 0.75 14.208 0.75 9.5C0.75 4.67525 4.67525 0.75 9.5 0.75ZM9.5 2.5C5.64038 2.5 2.5 5.64038 2.5 9.5C2.5 12.8593 4.87904 15.6738 8.0407 16.347V11.362H5.92993V8.91741H8.0407V7.11487C8.0407 5.02341 9.3181 3.88369 11.1841 3.88369C12.0778 3.88369 12.8458 3.95028 13.0688 3.97961V6.16575L11.7746 6.16637C10.76 6.16637 10.5644 6.6484 10.5644 7.35599V8.91615H12.9853L12.6695 11.3607H10.5644V16.4192C13.9208 15.905 16.5 12.9978 16.5 9.5C16.5 5.64038 13.3596 2.5 9.5 2.5Z" fill="white"/>
</svg>
