<svg width="19" height="19" viewBox="0 0 19 19" fill="none" xmlns="http://www.w3.org/2000/svg">
<path fill-rule="evenodd" clip-rule="evenodd" d="M7.75604 0.75H11.2465C12.1373 0.755996 12.478 0.769928 13.1097 0.79875C14.0412 0.841238 14.6775 0.9892 15.2341 1.20557C15.8097 1.42919 16.2977 1.72845 16.7843 2.215C17.2709 2.70158 17.5701 3.18966 17.7938 3.76518C17.9885 4.2662 18.1278 4.83163 18.1847 5.6188L18.2196 6.3241C18.2401 6.83167 18.249 7.26853 18.252 8.33877L18.2494 11.2291C18.2435 12.1305 18.2295 12.4714 18.2006 13.1065C18.1581 14.038 18.0101 14.6742 17.7938 15.2309C17.5701 15.8064 17.2709 16.2945 16.7843 16.7811C16.2977 17.2676 15.8097 17.5669 15.2341 17.7906C14.7331 17.9853 14.1677 18.1246 13.3805 18.1815L12.5744 18.2203C12.0732 18.2393 11.5957 18.247 10.4379 18.2493L7.60758 18.245C6.82508 18.2384 6.48819 18.2245 5.89286 18.1973C4.96131 18.1548 4.3251 18.0069 3.76841 17.7906C3.19289 17.5669 2.70482 17.2676 2.21824 16.7811C1.73169 16.2945 1.43243 15.8064 1.2088 15.2309C1.01407 14.7299 0.87475 14.1645 0.817859 13.3773L0.791234 12.8673C0.762929 12.2224 0.752559 11.8072 0.75 10.3974L0.754543 7.58174C0.760683 6.87004 0.773132 6.5294 0.796417 6.01233L0.801985 5.88962C0.844473 4.95808 0.992435 4.32187 1.2088 3.76518C1.43243 3.18966 1.73169 2.70158 2.21824 2.215C2.70482 1.72845 3.19289 1.42919 3.76841 1.20557C4.3251 0.9892 4.96131 0.841238 5.89286 0.79875L6.67259 0.76742C6.96233 0.758653 7.28095 0.753198 7.75604 0.75ZM11.082 2.32585H7.92236C6.95031 2.33098 6.62076 2.34415 5.96564 2.37404C5.11233 2.41295 4.64892 2.55553 4.34053 2.67538C3.93201 2.83415 3.64046 3.0238 3.33422 3.33008C3.02794 3.63632 2.83829 3.92786 2.67953 4.33638L2.61829 4.50459C2.52535 4.77953 2.43148 5.16369 2.39 5.75616L2.3671 6.20847C2.33981 6.83302 2.33022 7.23401 2.32782 8.58628L2.33113 11.264C2.33654 12.0359 2.34842 12.3737 2.37243 12.9076L2.37818 13.0346C2.41709 13.8879 2.55967 14.3513 2.67953 14.6597C2.83829 15.0682 3.02798 15.3598 3.33422 15.666C3.64046 15.9723 3.93201 16.1619 4.34053 16.3207L4.50873 16.3819C4.78367 16.4749 5.16783 16.5687 5.7603 16.6102L6.55937 16.6471C7.08537 16.6659 7.61496 16.6719 9.01567 16.6729L11.4779 16.6674C12.1599 16.6608 12.4815 16.6475 13.0387 16.622C13.892 16.5831 14.3554 16.4406 14.6638 16.3207C15.0724 16.1619 15.3639 15.9723 15.6701 15.666C15.9764 15.3598 16.1661 15.0682 16.3248 14.6597C16.4447 14.3513 16.5873 13.8879 16.6262 13.0346L16.6647 11.9536C16.671 11.6343 16.6744 11.2425 16.676 10.6494L16.6727 7.66387C16.6667 6.88233 16.6533 6.55593 16.6262 5.9615C16.5873 5.10819 16.4447 4.64478 16.3248 4.33638C16.1661 3.92786 15.9764 3.63632 15.6701 3.33008C15.3639 3.0238 15.0724 2.83415 14.6638 2.67538L14.4956 2.61415C14.1901 2.51088 13.7498 2.40647 13.0387 2.37404L12.1215 2.33917C11.8493 2.33239 11.5356 2.32825 11.082 2.32585ZM9.35911 5.11792C11.8572 5.11792 13.8824 7.14304 13.8824 9.64121C13.8824 12.1393 11.8572 14.1645 9.35911 14.1645C6.86094 14.1645 4.83582 12.1393 4.83582 9.64121C4.83582 7.14304 6.86094 5.11792 9.35911 5.11792ZM9.35879 6.70503C7.73717 6.70503 6.42262 8.01959 6.42262 9.64121C6.42262 11.2628 7.73717 12.5774 9.35879 12.5774C10.9804 12.5774 12.2949 11.2628 12.2949 9.64121C12.2949 8.01959 10.9804 6.70503 9.35879 6.70503ZM14.028 3.95062C14.5921 3.95062 15.0494 4.40793 15.0494 4.97203C15.0494 5.53613 14.5921 5.99339 14.028 5.99339C13.4639 5.99339 13.0066 5.53613 13.0066 4.97203C13.0066 4.40793 13.4639 3.95062 14.028 3.95062Z" fill="white"/>
</svg>
