<svg width="20" height="15" viewBox="0 0 20 15" fill="none" xmlns="http://www.w3.org/2000/svg">
<path fill-rule="evenodd" clip-rule="evenodd" d="M8.52673 0.000244141L10.7963 0.00187364L11.9192 0.0118809C14.6604 0.0485964 16.4211 0.171531 17.2896 0.399105C17.8507 0.554954 18.3429 0.840761 18.7511 1.24892C19.1592 1.65708 19.445 2.14931 19.6075 2.73547C19.683 3.03763 19.7497 3.40109 19.8092 3.82945C19.8678 4.25154 19.9089 4.6685 19.9324 5.0803L19.9698 5.82851L19.9891 6.37289L19.9993 6.88725L19.9984 7.72682C19.9827 9.58256 19.8559 10.9859 19.5967 11.9964C19.4392 12.5322 19.154 13.0075 18.7511 13.4104C18.3429 13.8186 17.8507 14.1044 17.2765 14.2638C16.8483 14.3764 16.1792 14.4566 15.2368 14.5138L14.6955 14.5428L14.1173 14.5691L13.0076 14.6134L12.4749 14.6314L11.4505 14.6593L9.19631 14.6574C5.81107 14.641 3.68905 14.5166 2.70656 14.2591C1.51642 13.9235 0.710453 13.1339 0.395563 11.9688C0.283667 11.5436 0.200447 11.0058 0.1418 10.3475L0.118158 10.0579C0.0903278 9.685 0.0666434 9.34084 0.0469889 9.01985L0.0286735 8.70638L0 8.12086L0.00164813 6.93665C0.0173207 5.10011 0.144181 3.70609 0.399119 2.71036C0.554968 2.14931 0.840775 1.65708 1.24894 1.24892C1.6571 0.840761 2.14932 0.554954 2.72353 0.395549C3.06609 0.305401 3.56282 0.236062 4.23031 0.182636L4.76321 0.145473L5.30453 0.116481L6.44429 0.0666896L7.51834 0.0279424L8.52673 0.000244141ZM8.572 1.99899L7.58056 2.02697L6.52275 2.06515L5.39877 2.11426C4.30154 2.16602 3.56162 2.24309 3.24567 2.32614C3.01551 2.39007 2.82642 2.49987 2.66315 2.66314C2.49988 2.8264 2.39009 3.0155 2.33144 3.22584C2.17302 3.84513 2.0688 4.74999 2.02443 5.92647L2.01382 6.25406L2.0016 6.94938L1.99906 8.07743L2.03569 8.77694L2.05191 9.03865L2.13275 10.1568L2.1793 10.6064C2.22143 10.9553 2.27163 11.2391 2.328 11.4534C2.45438 11.921 2.72534 12.1864 3.23138 12.3293L3.42698 12.3731C4.26412 12.5356 6.10376 12.6346 8.8703 12.6553L9.2364 12.6575L11.4278 12.6596L12.4194 12.6323L13.4773 12.5942L14.6012 12.5451L15.082 12.5194C15.9161 12.4694 16.487 12.4034 16.7543 12.3332C16.9845 12.2692 17.1736 12.1594 17.3368 11.9962C17.5054 11.8277 17.6158 11.6436 17.6686 11.4664C17.8269 10.8474 17.9312 9.9365 17.9756 8.74814L17.9862 8.41718L17.9984 7.71423L18 7.32966L17.9994 6.90173L17.9841 6.24209L17.9554 5.56215C17.9495 5.44265 17.9429 5.32006 17.9357 5.1944C17.9153 4.83697 17.8795 4.47371 17.8282 4.10459L17.7664 3.70315C17.7351 3.52034 17.7037 3.36578 17.6738 3.24565C17.6099 3.0155 17.5001 2.8264 17.3368 2.66314C17.1736 2.49987 16.9845 2.39007 16.7686 2.33C16.0767 2.14879 14.2747 2.03491 11.4556 2.00682L10.397 2.00045L8.572 1.99899ZM7.94872 3.99999L13.1868 6.96702L7.94872 9.97068V3.99999Z" fill="white"/>
</svg>
