<svg width="47" height="35" viewBox="0 0 47 35" fill="none" xmlns="http://www.w3.org/2000/svg">
<path fill-rule="evenodd" clip-rule="evenodd" d="M20.1238 0.458984L25.325 0.462719L27.8982 0.485652C34.1802 0.569792 38.2149 0.851516 40.2054 1.37304C41.4911 1.7302 42.6191 2.38517 43.5545 3.32054C44.4899 4.25591 45.1449 5.38392 45.5172 6.72722C45.6903 7.41966 45.843 8.2526 45.9794 9.23425C46.1137 10.2015 46.2079 11.1571 46.2618 12.1008L46.3475 13.8154V13.8154L46.3917 15.063L46.4151 16.2417V16.2417L46.4129 18.1657C46.377 22.4185 46.0864 25.6344 45.4925 27.9503C45.1314 29.178 44.4778 30.2672 43.5545 31.1906C42.6191 32.1259 41.4911 32.7809 40.1753 33.1462C39.194 33.4045 37.6606 33.5882 35.501 33.7193L34.2605 33.7857L32.9354 33.846L30.3925 33.9475V33.9475L29.1717 33.9888L26.8242 34.0527L21.6582 34.0484C13.9004 34.0107 9.03742 33.7257 6.78587 33.1356C4.05845 32.3663 2.21145 30.557 1.48983 27.8868C1.2334 26.9124 1.04269 25.68 0.908292 24.1714L0.854112 23.5078C0.790335 22.6532 0.736058 21.8645 0.691017 21.1289L0.649044 20.4106L0.583334 19.0687L0.587111 16.3549C0.623027 12.1462 0.913748 8.95156 1.49798 6.66968C1.85514 5.38392 2.51011 4.25591 3.44548 3.32054C4.38085 2.38517 5.50886 1.7302 6.82475 1.36489C7.60979 1.1583 8.74813 0.999401 10.2778 0.876966L11.499 0.791802L12.7396 0.725361L15.3515 0.611255V0.611255L17.8129 0.522459L20.1238 0.458984ZM20.2275 5.03943L17.9555 5.10357L15.5313 5.19106L12.9555 5.3036C10.441 5.42221 8.74539 5.59884 8.02132 5.78916C7.49388 5.93567 7.06054 6.18729 6.68639 6.56145C6.31223 6.9356 6.06062 7.36894 5.92622 7.85098C5.56317 9.27017 5.32434 11.3438 5.22266 14.0399L5.19834 14.7906L5.17034 16.3841L5.1645 18.9692L5.24846 20.5722V20.5722L5.28564 21.172L5.47089 23.7344L5.57757 24.7648C5.67411 25.5643 5.78916 26.2147 5.91833 26.7057C6.20796 27.7773 6.82891 28.3856 7.98858 28.7131L8.43682 28.8135C10.3553 29.1859 14.5711 29.4127 20.9111 29.4601L21.7501 29.4652L26.7721 29.47L29.0445 29.4075V29.4075L31.4687 29.32L34.0445 29.2075L35.1463 29.1488C37.0577 29.0342 38.366 28.883 38.9787 28.7219C39.5061 28.5754 39.9395 28.3238 40.3136 27.9497C40.6998 27.5635 40.9528 27.1418 41.0738 26.7357C41.4367 25.317 41.6756 23.2296 41.7773 20.5063L41.8016 19.7478L41.8297 18.1369L41.8333 17.2556L41.8319 16.2749L41.7968 14.7632L41.7312 13.205C41.7175 12.9312 41.7024 12.6502 41.686 12.3623C41.6392 11.5431 41.5571 10.7107 41.4396 9.86477L41.298 8.94481C41.2263 8.52587 41.1542 8.17166 41.0859 7.89638C40.9394 7.36894 40.6878 6.9356 40.3136 6.56145C39.9395 6.18729 39.5061 5.93567 39.0114 5.798C37.4259 5.38274 33.2961 5.12176 26.8358 5.05739L24.4098 5.04279L20.2275 5.03943ZM18.7991 9.62506L30.8031 16.4245L18.7991 23.3079V9.62506Z" fill="white"/>
</svg>
