<svg width="35" height="35" viewBox="0 0 35 35" fill="none" xmlns="http://www.w3.org/2000/svg">
<path d="M20.4167 2.91663H8.75001C7.97646 2.91663 7.2346 3.22392 6.68762 3.7709C6.14063 4.31788 5.83334 5.05974 5.83334 5.83329V29.1666C5.83334 29.9402 6.14063 30.682 6.68762 31.229C7.2346 31.776 7.97646 32.0833 8.75001 32.0833H26.25C27.0236 32.0833 27.7654 31.776 28.3124 31.229C28.8594 30.682 29.1667 29.9402 29.1667 29.1666V11.6666L20.4167 2.91663Z" stroke="#292929" stroke-width="2" stroke-linecap="round" stroke-linejoin="round"/>
<path d="M20.4167 2.91663V11.6666H29.1667" stroke="#292929" stroke-width="2" stroke-linecap="round" stroke-linejoin="round"/>
<path d="M23.3333 18.9584H11.6667" stroke="#292929" stroke-width="2" stroke-linecap="round" stroke-linejoin="round"/>
<path d="M23.3333 24.7916H11.6667" stroke="#292929" stroke-width="2" stroke-linecap="round" stroke-linejoin="round"/>
<path d="M14.5833 13.125H13.125H11.6667" stroke="#292929" stroke-width="2" stroke-linecap="round" stroke-linejoin="round"/>
</svg>
