<svg width="20" height="16" viewBox="0 0 20 16" fill="white" xmlns="http://www.w3.org/2000/svg">
<path fill-rule="evenodd" clip-rule="evenodd" d="M0.902555 5.3983L0.890599 5.40627C0.334202 5.7772 0 6.40166 0 7.07037V15C0 15.5523 0.447715 16 1 16H2C2.55228 16 3 15.5523 3 15V14H17V15C17 15.5523 17.4477 16 18 16H19C19.5523 16 20 15.5523 20 15V7.07037C20 6.40166 19.6658 5.7772 19.1094 5.40627L19.0974 5.3983C19.4619 5.1878 19.792 4.98103 19.8561 4.88889C20.0108 4.66667 20.0819 4 19.8561 4H18L16.8292 1.65836C16.321 0.642007 15.2822 0 14.1459 0H5.8541C4.71779 0 3.679 0.642007 3.17082 1.65836L2 4H0.143881C-0.0818624 4 -0.0107951 4.66667 0.143881 4.88889C0.208019 4.98103 0.538103 5.1878 0.902555 5.3983ZM4.10196 2.05882L2.39216 5.26471C2.21453 5.59776 2.45587 6 2.83333 6H17.1667C17.5441 6 17.7855 5.59776 17.6078 5.26471L15.898 2.05882C15.5505 1.4071 14.872 1 14.1333 1H5.86667C5.12805 1 4.44955 1.4071 4.10196 2.05882ZM1 9.07987V7.87052C1 7.48462 1.41861 7.24419 1.75194 7.43863L5.09077 9.38628C5.5509 9.65469 5.32817 10.3607 4.79731 10.3164L1.91695 10.0764C1.39866 10.0332 1 9.59996 1 9.07987ZM19 7.87052V9.07987C19 9.59996 18.6013 10.0332 18.083 10.0764L15.2027 10.3164C14.6718 10.3607 14.4491 9.65469 14.9092 9.38628L18.2481 7.43863C18.5814 7.24419 19 7.48462 19 7.87052Z" fill="white"/>
</svg>
