<svg width="39" height="37" viewBox="0 0 39 37" fill="none" xmlns="http://www.w3.org/2000/svg">
<path fill-rule="evenodd" clip-rule="evenodd" d="M34.5 12H23.9775L26.0831 5.68687C26.4619 4.54687 26.2706 3.28312 25.5675 2.30812C24.8644 1.33312 23.7244 0.75 22.5225 0.75H19.5C18.9431 0.75 18.4163 0.9975 18.0581 1.425L9.24563 12H4.5C2.43187 12 0.75 13.6819 0.75 15.75V32.625C0.75 34.6931 2.43187 36.375 4.5 36.375H10.125H29.4506C31.005 36.375 32.415 35.3981 32.9625 33.9412L38.1319 20.1581C38.2106 19.9481 38.25 19.725 38.25 19.5V15.75C38.25 13.6819 36.5681 12 34.5 12ZM4.5 15.75H8.25V32.625H4.5V15.75ZM34.5 19.1606L29.4506 32.625H12V14.5538L20.3775 4.5H22.5262L19.5975 13.2806C19.4044 13.8525 19.5019 14.4806 19.8544 14.97C20.2069 15.4613 20.7731 15.75 21.375 15.75H34.5V19.1606Z" fill="#292929"/>
</svg>
