<svg width="24" height="20" viewBox="0 0 24 20" fill="none" xmlns="http://www.w3.org/2000/svg">
<path fill-rule="evenodd" clip-rule="evenodd" d="M8 11.5C11.0238 11.5 13.5998 12.6983 14.5787 14.3766C14.652 14.469 14.7156 14.5669 14.7697 14.6699C14.937 15.0009 15.0131 15.3662 14.9982 15.7284L14.987 15.8755C14.9593 16.128 14.8868 16.3766 14.7697 16.6083C14.3837 17.3435 13.5452 17.8427 12.1779 18.1188L11.9311 18.1653C11.2564 18.3013 10.5735 18.3897 9.88719 18.4299C9.3785 18.486 8.8698 18.4972 8.35723 18.4994L6.81383 18.5C6.5716 18.4689 6.33693 18.4533 6.10984 18.4533C5.42346 18.418 4.74042 18.3321 4.06598 18.1964C2.605 17.9161 1.65119 17.4179 1.24242 16.6395C1.11814 16.402 1.04014 16.1426 1.01196 15.8758L1.0035 15.735L1.00009 15.6586C0.997431 15.3715 1.05301 15.0876 1.16263 14.8249L1.23485 14.6699C1.28205 14.5783 1.3369 14.4905 1.39935 14.4064L1.41827 14.3819C2.39477 12.7008 4.97301 11.5 8 11.5Z" stroke="white" stroke-width="1.5" stroke-linecap="round" stroke-linejoin="round"/>
<circle cx="8" cy="5.5" r="4" stroke="white" stroke-width="1.5" stroke-linecap="round" stroke-linejoin="round"/>
<path d="M16.0082 12.051C16.3309 12.0175 16.6622 12 17 12C19.5918 12 21.7999 13.0271 22.6389 14.4656C22.7017 14.5449 22.7563 14.6288 22.8026 14.7171C22.946 15.0008 23.0112 15.3139 22.9984 15.6244L22.9889 15.7504C22.9651 15.9669 22.903 16.1799 22.8026 16.3786C22.4717 17.0087 21.7531 17.4366 20.581 17.6733L20.3695 17.7131C19.7912 17.8297 19.2059 17.9055 18.6176 17.9399C18.1816 17.988 17.7455 17.9976 17.3062 17.9995C17.3062 17.9995 16.8274 17.9997 16.588 17.9998" stroke="white" stroke-width="1.5" stroke-linecap="round" stroke-linejoin="round"/>
<path d="M17.2437 2.5C15.4856 2.5 14.0502 3.98585 13.9648 5.85326L13.9608 6.02941C13.9608 6.5236 13.8479 7.42655 13.6216 8.72084L13.5 9.40183L13.8624 9.51227C14.93 9.83757 16.0575 10 17.2437 10C18.4306 10 19.5624 9.8334 20.6377 9.49982L21 9.38744L20.8268 8.43705C20.6419 7.37939 20.5425 6.61007 20.5283 6.14054L20.5266 6.02941C20.5266 4.08017 19.0568 2.5 17.2437 2.5Z" stroke="white" stroke-width="1.5"/>
</svg>
