<svg width="22" height="21" viewBox="0 0 22 21" fill="none" xmlns="http://www.w3.org/2000/svg">
<path fill-rule="evenodd" clip-rule="evenodd" d="M5.24766 5L16.7523 5C19.6505 5 20.5 5.84951 20.5 8.74766V16.2523C20.5 19.1505 19.6505 20 16.7523 20H5.24766C2.34951 20 1.5 19.1505 1.5 16.2523V8.74766C1.5 5.84951 2.34951 5 5.24766 5Z" stroke="white" stroke-width="1.5" stroke-linecap="round" stroke-linejoin="round"/>
<path fill-rule="evenodd" clip-rule="evenodd" d="M11.5214 12.0415C12.0736 12.0415 12.5214 12.4892 12.5214 13.0415V15.0415C12.5214 15.5938 12.0736 16.0415 11.5214 16.0415H10.5167C9.96446 16.0415 9.51675 15.5938 9.51675 15.0415V13.0415C9.51675 12.4892 9.96446 12.0415 10.5167 12.0415H11.5214Z" stroke="white" stroke-width="1.5" stroke-linecap="round" stroke-linejoin="round"/>
<path d="M15.0233 4.99998C15.0233 4.08545 15.0233 2.7261 15.0233 2.7261C15.0233 2.7261 14.8624 1.83574 14.5233 1.49998C14.1842 1.16421 13.28 0.999978 13.28 0.999978H8.72058C8.72058 0.999978 8.02692 0.955238 7.49199 1.49998C6.95706 2.04472 6.99199 2.76028 6.99199 2.76028C6.99199 2.76028 6.99199 4.46969 6.99199 4.99998" stroke="white" stroke-width="1.5" stroke-linecap="round" stroke-linejoin="round"/>
<path d="M13.0211 13.2546C15.3544 13.0889 20.5211 12 20.5211 12" stroke="white" stroke-width="1.5"/>
<path d="M1.5 12C1.5 12 6.75363 13.0931 9 13.2571" stroke="white" stroke-width="1.5"/>
</svg>
