<svg width="22" height="20" viewBox="0 0 22 20" fill="none" xmlns="http://www.w3.org/2000/svg">
<path fill-rule="evenodd" clip-rule="evenodd" d="M11.7135 1.44133L14.0302 6.09669C14.1438 6.33067 14.3673 6.49424 14.6275 6.53369L19.8128 7.28282C20.0232 7.31151 20.2133 7.42187 20.3407 7.58934C20.4682 7.75682 20.5225 7.96754 20.4915 8.17466C20.4654 8.3449 20.3827 8.50178 20.2562 8.62057L16.5007 12.2592C16.3109 12.4386 16.2258 12.7002 16.2745 12.9549L17.1794 18.0829C17.2449 18.5054 16.9552 18.9019 16.5278 18.9747C16.3516 19.0019 16.1712 18.9739 16.012 18.8945L11.3878 16.4776C11.1568 16.3522 10.8767 16.3522 10.6457 16.4776L5.99429 18.9123C5.60404 19.1097 5.12531 18.963 4.91741 18.5823C4.83635 18.4289 4.80778 18.2537 4.83596 18.0829L5.74091 12.9549C5.78468 12.7005 5.70031 12.4411 5.51467 12.2592L1.73201 8.62057C1.42266 8.3115 1.42266 7.81485 1.73201 7.50578C1.85826 7.39058 2.01522 7.31324 2.18448 7.28282L7.36981 6.53369C7.62871 6.49136 7.85105 6.32868 7.96707 6.09669L10.2837 1.44133C10.3753 1.25257 10.5403 1.10824 10.7413 1.04107C10.9424 0.973907 11.1624 0.989602 11.3516 1.0846C11.5076 1.16259 11.6344 1.28754 11.7135 1.44133Z" stroke="white" stroke-width="1.5" stroke-linecap="round" stroke-linejoin="round"/>
</svg>
