<svg width="28" height="19" viewBox="0 0 28 19" fill="none" xmlns="http://www.w3.org/2000/svg">
<path d="M27.104 6.15297C27.104 6.15297 26.8251 5.5361 26.4803 5.5361H23.2675C22.9238 5.5361 22.6449 5.81295 22.6449 6.15297V6.74985H21.7691C21.7691 6.16034 21.7691 5.7898 21.7691 5.754C21.7691 5.5361 21.5403 5.5561 21.5403 5.5561H19.5886C19.5886 2.53172 18.0444 2.54225 18.0444 2.54225H14.5912V1.51482H18.0444V0H6.59478V1.51482H10.3599V2.54225C10.3599 2.54225 8.44117 2.54225 6.89383 2.54225L4.81013 4.11812H3.19471C2.84991 4.11812 2.57106 4.39393 2.57106 4.73395V8.6889H1.53347V4.46446H0V15.0714H1.53347V10.7048H2.57106V14.8008C2.57106 15.1408 2.84991 15.4166 3.19471 15.4166H4.81013L9.87887 19C9.87887 19 19.0427 19 20.4846 19C21.9245 19 21.7691 17.7862 21.7691 17.7862C21.7691 17.7862 21.7691 17.0515 21.7691 15.943H22.6449V17.3041C22.6449 17.6452 22.9238 17.921 23.2675 17.921H26.4803C26.8251 17.921 27.104 17.3041 27.104 17.3041L28 14.724V8.73417L27.104 6.15297Z" fill="#FAB639" fill-opacity="0.5"/>
<rect x="7" y="9" width="14" height="3" rx="1.5" fill="#373C3F"/>
</svg>
