<svg width="30" height="20" viewBox="0 0 30 20" fill="none" xmlns="http://www.w3.org/2000/svg">
<path d="M29.7321 5.84279C29.8123 4.78238 29.7144 3.50831 28.9705 3.1034C28.1314 2.64574 27.2542 2.55342 26.4056 2.46373C25.6781 2.38724 24.9899 2.31601 24.4106 2.0087C24.1345 1.8623 23.8245 1.62887 23.4981 1.37959C22.8739 0.908741 22.2279 0.419424 21.4799 0.257197C20.6776 0.0817822 19.7542 0 18.5765 0C17.9862 0 17.3987 0.0211077 16.8289 0.0382536C16.3815 0.0540805 15.9613 0.067271 15.5492 0.0725466C13.7459 0.0923303 12.5465 0.358747 10.7976 1.12372C9.69193 1.60776 8.623 2.0918 7.72408 2.49935C7.0033 2.82776 6.58579 2.87919 5.67054 2.98998L5.56583 3.00317C3.96381 3.19836 1.282 3.52677 0.23076 5.21102C-0.133706 5.79662 -0.0643258 6.43366 0.423895 6.96254C0.924355 7.50593 1.6628 7.74993 2.31829 7.91611C2.6406 7.99789 2.98739 8.06384 3.37633 8.12187C3.41441 8.12715 3.44842 8.13506 3.48377 8.14034C3.7544 9.20734 4.7458 10 5.92487 10C7.03187 10 7.97296 9.30888 8.31158 8.33948L8.31836 8.3408C9.01057 8.35135 9.70551 8.35927 10.3977 8.36719C12.8402 8.39357 14.8271 8.40674 16.6494 8.40674C18.095 8.40674 19.4359 8.39884 20.7292 8.38301C21.1059 9.28383 22.0171 9.90635 23.0602 9.90635C24.1373 9.90635 25.0743 9.2337 25.4265 8.29068C25.5693 8.29068 25.7284 8.292 25.897 8.292C28.2157 8.292 29.1623 8.0612 29.4506 7.41362L29.4655 7.37932C29.4954 7.31733 29.5227 7.24479 29.5485 7.16566L30 5.72804L29.7321 5.84279ZM7.02777 7.61013C6.99649 8.1799 6.51373 8.62569 5.92487 8.62569C5.31833 8.62569 4.82466 8.14561 4.82466 7.55737V7.53627C4.8301 7.28831 4.92259 7.06014 5.07627 6.88077C5.30066 6.62886 5.63791 6.51279 5.94662 6.51279C6.08669 6.51279 6.38181 6.53917 6.63884 6.7436C6.71364 6.80559 6.78163 6.87681 6.83739 6.95594C6.83875 6.9599 6.84284 6.96387 6.8442 6.96782C6.86051 6.99024 6.87412 7.01397 6.88772 7.03639C6.8986 7.05486 6.90676 7.07333 6.91492 7.08915C6.91899 7.09838 6.92578 7.10763 6.92986 7.11818C6.96657 7.20523 6.98153 7.28171 6.99513 7.37008C7.00329 7.42284 7.01553 7.47296 7.02641 7.52044C7.02641 7.53099 7.02777 7.54418 7.02777 7.55737V7.61013ZM24.1604 7.53098L24.1577 7.55737C24.1074 8.10604 23.6273 8.53205 23.0602 8.53205C22.5067 8.53205 22.0375 8.13242 21.9668 7.58903C21.9614 7.5521 21.9586 7.51122 21.9586 7.46374C21.9586 7.15643 22.0946 6.87813 22.3095 6.68425C22.5108 6.54445 22.7814 6.46663 23.0738 6.46663C23.3349 6.46663 23.5797 6.53257 23.7674 6.646C24.0094 6.84252 24.1617 7.13533 24.1617 7.46374C24.1617 7.48748 24.1617 7.50988 24.1604 7.53098ZM28.1899 6.73964C27.99 6.80426 27.4229 6.9177 25.897 6.9177C25.7705 6.9177 25.6509 6.91638 25.5407 6.91638C25.4455 6.44026 25.2184 6.09865 25.0076 5.87444C24.8812 5.73727 24.7356 5.61857 24.5738 5.5157C24.1522 5.20707 23.63 5.01979 23.0602 5.01979C22.4292 5.01979 21.8539 5.25059 21.4092 5.62252C21.2895 5.71353 21.1767 5.81245 21.076 5.92588C20.8639 6.16196 20.6408 6.51807 20.562 7.01134C19.3203 7.02453 18.0352 7.03113 16.6494 7.03113C14.8311 7.03113 12.8497 7.02057 10.4127 6.99287C9.73136 6.98496 9.04866 6.97706 8.36733 6.96782C8.34285 6.8689 8.31158 6.77262 8.27486 6.68029C8.2735 6.67765 8.27214 6.67371 8.27078 6.67107C8.25582 6.6315 8.23948 6.59325 8.2218 6.555C8.20277 6.51675 8.18373 6.47718 8.16197 6.43498C8.14974 6.41256 8.13885 6.39277 8.12525 6.37035C8.11709 6.35452 8.1103 6.34002 8.10078 6.32419C8.03143 6.21077 7.95664 6.10657 7.87232 6.00897C7.8696 6.00501 7.86823 6.00105 7.86415 5.99973C7.76896 5.88894 7.6656 5.78739 7.55408 5.69639C7.53096 5.67661 7.50648 5.65945 7.48336 5.63967C7.46296 5.62516 7.44393 5.61198 7.42489 5.59879C7.00467 5.29544 6.48789 5.11474 5.92487 5.11474C5.22722 5.11474 4.58941 5.39963 4.12975 5.85597C3.87136 6.10657 3.67008 6.41123 3.54633 6.75678C3.22266 6.70798 2.93841 6.6526 2.67458 6.58533C2.2258 6.47191 1.72945 6.31891 1.48058 6.04853C1.43706 5.99973 1.42343 5.97204 1.41799 5.97072C1.42071 5.96412 1.42617 5.94698 1.44249 5.92192C2.14015 4.80744 4.39492 4.53046 5.74263 4.36692L5.84871 4.35373C6.81835 4.23371 7.40312 4.16249 8.32652 3.74439C9.22001 3.33817 10.2821 2.85545 11.3796 2.37668C12.9667 1.68162 13.9445 1.46532 15.5655 1.44554C15.9939 1.44158 16.4223 1.42839 16.8765 1.41257C17.4341 1.3941 18.0107 1.37563 18.5765 1.37563C19.6481 1.37563 20.4708 1.44553 21.1698 1.5972C21.6064 1.69348 22.1246 2.08389 22.625 2.46373C22.984 2.73411 23.3553 3.01503 23.7306 3.21419C24.5575 3.65207 25.4197 3.74176 26.2533 3.83145C26.9646 3.90662 27.6391 3.97652 28.2103 4.26668C28.4088 4.65839 28.3436 6.13294 28.1899 6.73964Z" fill="#FAB639" fill-opacity="0.5"/>
<path d="M16.4407 18.967V12.0633H19.1427V10H10.8573V12.0633H13.5593V18.967H5V20H25V18.967H16.4407ZM14.1673 18.967V12.0633H15.834V18.967H14.1673Z" fill="#FAB639" fill-opacity="0.5"/>
</svg>
